<svg viewBox="0 0 597 375" xmlns="http://www.w3.org/2000/svg" fill="#fff" fill-rule="evenodd" clip-rule="evenodd" stroke-linejoin="round" stroke-miterlimit="1.414"><path d="M166.35 16.51a30.323 30.323 0 0 1 5.49 0c13.27 2.48 25.65-.4 38.48-4.19 59.27-17.5 118.76-15.55 178 .35 12.51 3.36 24.65 7.89 37.76 3.49 57.82-1.39 100.8 24 130.41 72.87 9.78 16.15 14.88 34.11 17.73 52.75a25.716 25.716 0 0 0 3.44 9.15c9.79 16.19 16.56 33.44 18.45 52.33 3.25 32.54-9.39 58.46-33.76 79.3-12.64 10.81-26.89 19-42 25.9a900.48 900.48 0 0 1-201.85 64.21c-18.54 3.6-36.91 1.29-55-2.78-57.45-12.85-113.75-29.6-167.53-53.91-19.39-8.77-39.12-17.15-55.89-30.75a175.875 175.875 0 0 1-15-13.23c-25.87-26.45-32-58.43-17.11-92.34 4.11-9.39 10-18 15.08-27 .87-1.55 2.06-3.24 2.09-4.89.66-30.89 12.72-57.38 32.14-80.59 28.29-33.82 65.04-50.32 109.07-50.67zm133.36 342.08l.23-.9c4.14-.4 8.33-.51 12.41-1.24a844.168 844.168 0 0 0 199.62-61.5c16.66-7.53 32-17.13 44.73-30.53 16.54-17.49 24.87-38.1 22.44-62.34-1.77-17.71-8.17-33.89-17.6-49a24.063 24.063 0 0 1-3.29-8.69c-7.14-44-30-77.21-69.24-98.38-26.06-14.05-53.77-20.43-83.45-13.68a7.712 7.712 0 0 1-3.85-.3 364.728 364.728 0 0 0-67.31-14.5c-45.22-5.46-89.42-1.3-132.63 13.29a19.824 19.824 0 0 1-8.26.59c-46.76-5.13-87.19 7.73-119.25 42.88-19.41 21.28-31.42 46.13-32.34 75.56-.06 1.79-1.38 3.61-2.31 5.31-5.3 9.65-11.54 18.88-15.73 28.88-8.71 20.87-7.72 41.64 3.86 61.48 7.09 12.16 17 21.74 28.11 30.13 19.39 14.6 41.74 23.61 63.81 32.89 42.8 18 87.32 30.83 132.47 41.37 15.67 3.7 31.71 5.84 47.58 8.68z" fill-rule="nonzero"/><path d="M184.19 46.77c15.46 3.42 29.75-1.81 44.48-5.36 55.79-13.46 111.1-9.93 165.89 6.1 1.853.665 3.836.888 5.79.65 28.14-5.84 54.46 0 79.22 13.22 35.32 18.79 56.79 48 63.4 87.78a21.366 21.366 0 0 0 3.19 7.68c9.67 15.17 16.2 31.35 16.52 49.61.33 19.25-7.08 35.35-20.28 49-12.27 12.59-27.09 21.59-43.13 28.44-54.71 23.5-111.42 40.34-169.79 52.15-23.21 4.7-45.66 3.31-68.31-1.75-46.08-10.3-91.57-22.69-135.28-40.74-21.06-8.7-42.41-17.08-60.26-32-13.1-10.89-23.66-23.51-27.39-40.63-3.42-15.56-.11-30.21 7.17-44 3.73-7 9.62-13.08 12.44-20.39 2.74-7.09 1.86-15.52 4.2-22.85 15.59-48.94 50-76.32 99.74-85.59 4.11-.689 8.257-1.13 12.42-1.32 3.31-.17 6.65 0 9.98 0zm205.36 99.33c.91 8.4 1 17 2.94 25.16a97.244 97.244 0 0 0 8.75 24.15c11.62 21.38 29.49 29.46 53.22 24.57 26.17-5.39 47.11-17.94 57.15-44.24 5.6-14.68 5.94-30 3.45-45.21-3.65-22.37-15.27-38.86-36.75-47.83-13.28-5.55-27.09-6.21-41.11-5.64-18.85.76-32.57 9.29-40 27-5.65 13.44-7.13 27.57-7.65 42.04zm-177.25-.12c-.18-13.94-1.33-28.35-7.16-41.94-6.47-15.13-17.62-24.7-34.29-26.05-9.89-.8-20.06-1.08-29.83.35-20.85 3.06-38.05 12.85-47.24 32.7-10 21.69-10.54 44.32-1.9 66.55 9.21 23.7 28.56 35.57 52.18 41.39 10.31 2.54 20.69 5 31.27.18 14.28-6.51 23.85-17.25 29.8-31.47 5.5-13.15 7.12-26.98 7.17-41.71zm109.2 131.81c.95 5.85 1.69 11.57 2.9 17.19.32 1.48 2.08 2.66 3.18 4 1.18-1.21 3-2.23 3.44-3.66a60.864 60.864 0 0 0 0-34.73c-.4-1.35-2-2.34-3.07-3.5-1.18 1.21-3.09 2.26-3.41 3.66-1.31 5.57-2.08 11.29-3.04 17.04zm-53.84-20.63c-7.59 6.76-7.27 36.75.43 41.64 7.26-7.42 6.96-35.88-.43-41.65v.01z" fill-rule="nonzero"/><path d="M485.27 130.95c-.23 8.31-2 16.15-7.65 22.6-6.4 7.26-15.11 7.28-21.66.18-10.24-11.11-10.31-34-.14-45.25 6.63-7.33 15.49-7.29 22 .23 5.49 6.33 7.2 14.04 7.45 22.24zm-368.99-2.96c.26-6.39 2-14.08 7.51-20.4 6.56-7.46 15.38-7.4 22 0 10 11.17 10 33.78 0 44.88-6.65 7.39-15.37 7.38-22 0-4.82-5.33-7.55-13.72-7.51-24.48z" fill-rule="nonzero"/></svg>